<mxfile host="app.diagrams.net" modified="2024-03-18T17:55:35.398Z" agent="Mozilla/5.0 (Windows NT 10.0; Win64; x64) AppleWebKit/537.36 (KHTML, like Gecko) Chrome/122.0.0.0 Safari/537.36" etag="mnifpoEEI6Q3UnafnpZ_" version="24.0.7" type="github">
  <diagram name="Page-1" id="e7e014a7-5840-1c2e-5031-d8a46d1fe8dd">
    <mxGraphModel dx="1434" dy="746" grid="1" gridSize="10" guides="1" tooltips="1" connect="1" arrows="1" fold="1" page="1" pageScale="1" pageWidth="1169" pageHeight="826" background="none" math="0" shadow="0">
      <root>
        <mxCell id="0" />
        <mxCell id="1" parent="0" />
        <mxCell id="2" value="Custom MetadataÂ " style="swimlane;whiteSpace=wrap" parent="1" vertex="1">
          <mxGeometry x="164.5" y="128" width="280" height="570" as="geometry" />
        </mxCell>
        <mxCell id="FMLH_2FoLISFBr_eS4cL-58" value="&lt;span style=&quot;font-weight: 700;&quot;&gt;CoCa_NBA_Config__mdt&lt;/span&gt;" style="swimlane;fontStyle=0;childLayout=stackLayout;horizontal=1;startSize=30;horizontalStack=0;resizeParent=1;resizeParentMax=0;resizeLast=0;collapsible=1;marginBottom=0;whiteSpace=wrap;html=1;rounded=0;" vertex="1" parent="2">
          <mxGeometry x="35.5" y="52" width="164.5" height="180" as="geometry">
            <mxRectangle x="35.5" y="42" width="130" height="30" as="alternateBounds" />
          </mxGeometry>
        </mxCell>
        <mxCell id="FMLH_2FoLISFBr_eS4cL-59" value="&lt;span style=&quot;color: rgb(24, 24, 24); font-family: -apple-system, BlinkMacSystemFont, &amp;quot;Segoe UI&amp;quot;, Roboto, Helvetica, Arial, sans-serif, &amp;quot;Apple Color Emoji&amp;quot;, &amp;quot;Segoe UI Emoji&amp;quot;, &amp;quot;Segoe UI Symbol&amp;quot;; font-size: 13px; white-space-collapse: preserve-breaks; background-color: rgb(255, 255, 255);&quot;&gt;&lt;b&gt;DeveloperName&lt;/b&gt;&lt;/span&gt;" style="text;strokeColor=none;fillColor=none;align=left;verticalAlign=middle;spacingLeft=4;spacingRight=4;overflow=hidden;points=[[0,0.5],[1,0.5]];portConstraint=eastwest;rotatable=0;whiteSpace=wrap;html=1;" vertex="1" parent="FMLH_2FoLISFBr_eS4cL-58">
          <mxGeometry y="30" width="164.5" height="30" as="geometry" />
        </mxCell>
        <mxCell id="FMLH_2FoLISFBr_eS4cL-60" value="&lt;span style=&quot;color: rgb(24, 24, 24); font-family: -apple-system, BlinkMacSystemFont, &amp;quot;Segoe UI&amp;quot;, Roboto, Helvetica, Arial, sans-serif, &amp;quot;Apple Color Emoji&amp;quot;, &amp;quot;Segoe UI Emoji&amp;quot;, &amp;quot;Segoe UI Symbol&amp;quot;; font-size: 13px; white-space-collapse: preserve-breaks; background-color: rgb(255, 255, 255);&quot;&gt;CaseFields__s&lt;/span&gt;" style="text;strokeColor=none;fillColor=none;align=left;verticalAlign=middle;spacingLeft=4;spacingRight=4;overflow=hidden;points=[[0,0.5],[1,0.5]];portConstraint=eastwest;rotatable=0;whiteSpace=wrap;html=1;" vertex="1" parent="FMLH_2FoLISFBr_eS4cL-58">
          <mxGeometry y="60" width="164.5" height="30" as="geometry" />
        </mxCell>
        <mxCell id="FMLH_2FoLISFBr_eS4cL-61" value="&lt;span style=&quot;color: rgb(24, 24, 24); font-family: -apple-system, BlinkMacSystemFont, &amp;quot;Segoe UI&amp;quot;, Roboto, Helvetica, Arial, sans-serif, &amp;quot;Apple Color Emoji&amp;quot;, &amp;quot;Segoe UI Emoji&amp;quot;, &amp;quot;Segoe UI Symbol&amp;quot;; font-size: 13px; white-space-collapse: preserve-breaks; background-color: rgb(255, 255, 255);&quot;&gt;AllowCaseClosed__c&lt;/span&gt;" style="text;strokeColor=none;fillColor=none;align=left;verticalAlign=middle;spacingLeft=4;spacingRight=4;overflow=hidden;points=[[0,0.5],[1,0.5]];portConstraint=eastwest;rotatable=0;whiteSpace=wrap;html=1;" vertex="1" parent="FMLH_2FoLISFBr_eS4cL-58">
          <mxGeometry y="90" width="164.5" height="30" as="geometry" />
        </mxCell>
        <mxCell id="FMLH_2FoLISFBr_eS4cL-62" value="&lt;span style=&quot;color: rgb(24, 24, 24); font-family: -apple-system, BlinkMacSystemFont, &amp;quot;Segoe UI&amp;quot;, Roboto, Helvetica, Arial, sans-serif, &amp;quot;Apple Color Emoji&amp;quot;, &amp;quot;Segoe UI Emoji&amp;quot;, &amp;quot;Segoe UI Symbol&amp;quot;; font-size: 13px; white-space-collapse: preserve-breaks; background-color: rgb(255, 255, 255);&quot;&gt;RunOnSelect__c&lt;/span&gt;" style="text;strokeColor=none;fillColor=none;align=left;verticalAlign=middle;spacingLeft=4;spacingRight=4;overflow=hidden;points=[[0,0.5],[1,0.5]];portConstraint=eastwest;rotatable=0;whiteSpace=wrap;html=1;" vertex="1" parent="FMLH_2FoLISFBr_eS4cL-58">
          <mxGeometry y="120" width="164.5" height="30" as="geometry" />
        </mxCell>
        <mxCell id="FMLH_2FoLISFBr_eS4cL-63" value="&lt;span style=&quot;color: rgb(24, 24, 24); font-family: -apple-system, BlinkMacSystemFont, &amp;quot;Segoe UI&amp;quot;, Roboto, Helvetica, Arial, sans-serif, &amp;quot;Apple Color Emoji&amp;quot;, &amp;quot;Segoe UI Emoji&amp;quot;, &amp;quot;Segoe UI Symbol&amp;quot;; font-size: 13px; white-space-collapse: preserve-breaks; background-color: rgb(255, 255, 255);&quot;&gt;CreateCaseTask__c&lt;/span&gt;" style="text;strokeColor=none;fillColor=none;align=left;verticalAlign=middle;spacingLeft=4;spacingRight=4;overflow=hidden;points=[[0,0.5],[1,0.5]];portConstraint=eastwest;rotatable=0;whiteSpace=wrap;html=1;" vertex="1" parent="FMLH_2FoLISFBr_eS4cL-58">
          <mxGeometry y="150" width="164.5" height="30" as="geometry" />
        </mxCell>
        <mxCell id="3" value="Flows" style="swimlane;whiteSpace=wrap" parent="1" vertex="1">
          <mxGeometry x="444.5" y="128" width="362.5" height="621" as="geometry" />
        </mxCell>
        <mxCell id="FMLH_2FoLISFBr_eS4cL-65" value="RecommendationStrategy Flow&amp;nbsp;&amp;nbsp;" style="swimlane;whiteSpace=wrap;html=1;startSize=23;" vertex="1" parent="3">
          <mxGeometry x="19.5" y="161.5" width="240.49" height="298" as="geometry" />
        </mxCell>
        <mxCell id="FMLH_2FoLISFBr_eS4cL-70" value="SHiNe Case NBA Strategy" style="text;html=1;align=center;verticalAlign=middle;resizable=0;points=[];autosize=1;strokeColor=none;fillColor=none;" vertex="1" parent="FMLH_2FoLISFBr_eS4cL-65">
          <mxGeometry x="15" y="33" width="160" height="30" as="geometry" />
        </mxCell>
        <mxCell id="FMLH_2FoLISFBr_eS4cL-71" value="" style="shape=image;verticalLabelPosition=bottom;labelBackgroundColor=default;verticalAlign=top;aspect=fixed;imageAspect=0;image=data:image/png,iVBORw0KGgoAAAANSUhEUgAAATMAAAFQCAYAAADTOJmqAAAgAElEQVR4Ae2dbcwkSV3Ab+MHP3jGL2gmMWGjxBiiJERRPnAxQhSMRqIfNMQgmtFFDPElQaO8iHKiIuDDHHvyfsjhG3rOYg4ihyIvlwg5nudYIC4vObgL6G3chbtDvdOwJynzr+5/dXV1z9NdM101Pd2/Tnaf6e7qqn/9quo31T09Pdfdddddhn8woA/QBw69D1xnWCAAAQhMgAAym0AjUgUIQMAYZEYvgAAEJkEAmU2iGakEBCCAzOgDEIDAJAggs0k0I5WAAASQGX0AAhCYBAFkNolmpBIQgAAyow9AAAKTIIDMJtGMVAICEEBm9AEIQGASBJDZJJqRSkAAAsiMPgABCEyCADKbRDNSCQhAAJnRByAAgUkQQGaTaEYqAQEIIDP6AAQgMAkCyGwSzUglIAABZEYfgAAEJkEAmU2iGakEBCCAzOgDEIDAJAggs0k0I5WAAASQGX0AAhCYBAFkdpDNeGxWi4VZhP+Ojg+yNsMHfcWszwmfpVlf3iZ3PX5hVifbHN99zPFR0H7n1uZK92GkOIUAMtsA54tf+Yr5q09cNC94z7vNj779rea7zx+Zb3nFjeb6G19i/8lr2Sb7JI2klWPyLBtktliY5QWGhDEqo54yu7w2S3ljcG8GenwKmVV5196MVGaNWLbpUWX/0Dy3yeIAj0FmXqN9+ZFHzGs/8i/mB295g/mGG1+y1T85VvKQvNItKrOV0bmYe6d3AzJd6ePPWYXRU2Ynq2KWm4Odyqo2a7xi1kflzGyIWLQMZDb+rjp0hDKjesEd77Yzrm0lFh4nMzjJM81sbbPM/JmZE5w9Ha3EJ/zq+6pBf+XCsnb62pbf6kRlobMZb90NIN0meWu8OnOs1qvZUNGq9bg05va8asfqALYzrHXjNDOslx7b2G4l45envc2LOeTpCajKr2KqOZQ1dJcIfLayrzpWT0ElDy+Wk2IGaY/TMm0sC7NQ7uH2RTW7rOdfj6/ivjTrC6XcJU/NT/P34kx1Cl7n1X9t9jOzP7rzA4NKrE1qUsawSziwtPPr4A9lVe4vO2TVcfW4omPXO7vuUwFVeS7P+cJbmqW9PlWlLzp5NQjr+8P01aBqxqWDdFNeOlA38Tg9b5FCs85yTFVecc1tU/4lbzfgl8XpaiiYoPHDeqrUumJRju1xl28sGovGUMqsmbe0VxF/+z5lr3VXlsqm6mtB9fa2OluZfezy/TudTobS6lqX008pc5hFO1glEPfOLAW4WYp2OO2AS7P+eHl9qHaaIwdpntppjTE6MEIJlqdjblAG68Xg1DJVhpvXrfxOi9nJRfPyxOoLyc0eWurig9d66WlluB5cc3ODXdO7/aVM9fhSDk3+fuHla3dM2Yaat27Xda8slV4jN2Wn9Q/XW9pW22510mTl6lvmp+u2fM3bxdeIZm8bZikzuVgvp4FdAhp6v5QpZe++aAcM3lm1g2mH896di4vNnsy047tg6nkWm+vbqgFQ7K11cu/0oy6zSo7h8bX102J2Mqvy8sv2X5eRBaeZlUhrF92V10aBFOU1869OCW1dG8fXuTnEbS/0WH1z0XWNzcmsqrtko+xq9dE2VZa67mTmvfmVfaOSmb7xeW+GeryX33F5GWJsp5jCZHYyk4vzQ0sqNj+JYbclHCy6Xs4UtPPpTMEvzO2rD46YmZl25HCQ19dVIFU5OgD1+Nq6i8sbVC7uZl5+Wfpar4M16hIIopE+2B9+GtpI7wQTzMycgLQ92upybFYunVRQ05acOmKxSJSVykaP0fVwf1iG49pSvvem5M/2i7YqLxFoObV89r8yK5mNQWQqvt2EpgOgGixuwNmOpoM/eCcuB5FKpHpXLwaSyyOY0bXKx+v0evqjx281M/MEUcUVfsBQibFWlg7eIG53n9mm/SoVlYE9XspQflqe8g546qDW4zU/J4+qfaqh3jOvjbH4AtoQT1Bfab9mm+s1sQ37pHytnxSpdRzx7T+zkZmc3qlIxvJ3+1NOHRD+YNEBqNeVqnUnBzfYwg6sgzbcrhfYi6GoA0LlVhNKQ25afjNvPT7Mr5oReYPUxtzMa1PZUtflhePgNNOv18oc68B0PDR/KbdNZt6plwqzbaC7/NraR3Xml1XW08+rJvUNsXisbbzlp5y+fJSt8Ah5u/7gyvVjauPjC7RqT63RWP7OQmZy4X0f18i6pCkxDfehwFi6FHEcNoFKbDrjtvXRNwAnwPHVchYy2+Um2C4h7bpfYmOBwD4J6CzXzdjs7LOc9becsu4z1tPKnrzM5B6vXYWT+vjh70M7rcnZB4E6gabMvMsXnsxqM7V6FqNYm7TM5O77bU4vv/f1rzV/8KH3mx94y+uziFBiTPNNgVH0MYKAQBYCk5aZfJ1om1mViEyWLz3ysHn2371jqzxiy5VYWSAAge0JTFZm8kXvbWZlIiGVmWJ98T/dkVxoEmvaL6drbfgLgWkSmKzMdrmnLJSZNP2bju9KLrTd7j2bZgelVhDoS2CyMtvlE8w2mQnQO+75rPmO17wymdSiPtn0LszaT6H0Hie73buA27cnlOnk/qSxX+iNrBLJZ0JgkjKTi+mx16z89JtkJn3iU1evmB/6szfvlL9fVvi61wcBVlj1mxePL5TPw0JmMxm6VDMkMEmZ7Xq3/2kyE4APX/uq+YV33pZEaL2+FSDCart5UW9sLO9S1xlW/aP3atZmtx/ps79ebl5Ve5RPlS7sNKxDYIwEJikzeYx1OOOJWe+SmTbk73/gfTuV0xaTxN69lHdp66mlf0BjZuY9xVSftlAeV0gumOFxmunT5PUBEZikzOS5/G2i6Lutr8yknW+9ePdOZYUxSex9F/f9O19qDZkFucnszZeZf2wpO53RBUeyCoFRE5ikzOSHRkJJxKzHyExa90P33Wsef9OrdypT45PYYxcrNT3tbJNZcPqJzGIJk/4QCExSZvLLSSqHbf7Gykwa+r6HHjTPuPUtO5UrsUrs8Yucdpani6HMRGQqOsmYmVk8Xo44CAKTlNm2N8uq+LaRmbb2j9x6y05Ck9g7l5OVe6yLTWsF1i6z4iK//oZT+SgcTjM7EZPg8Aggs5bHZ+8isxve/Lr0Mqs980qfwVV1Pr2WVlz7qh7pYp9tdXT6NbNez6+viuIVBEZDYJIy28dp5r0PPmie/rZ9nWaOpj8RCAT2RmCSMsv9AcD77/2c+c7Vq3aakekp7jYfAOyt91AwBEZEYJIyy3lrxi13Hw8iMZVZzK0ZI+pHhAKBvROYpMxy3TT7O+9776AiE6H1u2l27/2GACAwOgKTlFmOrzM9Z/03g4tMZNbr60yj60YEBIH9E5ikzFJ+0fxfr/yHeeotb0wiMpFZry+a77/fEAEERkdgkjITyikeAfSuz3zKPO7oj5OJLOoRQKPrSgQEgf0SmKzMhn4445/e9eFkEtOL/zyccb+DgdIPm8BkZTbkY7N/+x/fk1xkPDb7sAcS0e+fwGRlJmh3/UGTqw8/bH7mtr9OLjL7KSY/aLL/0UAEB01g0jKTi+nbfE/T/tTcB/+Zn5o76K5N8HMjMGmZSWPyI8Bz69LUd64EJi8zadhdPtnUi/Op/vIJ5lyHHvUemsAsZPaxy/dvdbqZSmCar5wCS2wsEIDA7gRmITPBtOu3AlRAQ/7lbv/dOzA5QEAJzEZmUuFd7j0bUmKSF/eUaRfkLwSGITArmQmyMQgNkQ3TeckFAj6B2clMKi+nd9vcsrHr7EzK5NTS7368hsBwBGYpM8EnF95zfsopZXGxf7iOS04QCAnMVmYKQu5DSzlLk7ylDBYIQCAtgdnLTPDKNwXkq09DSk3ykjx5pE/aDkzuEFACyExJGGPky+lycX6X0085VvKQvFggAIF8BJDZBtYyo5KL9fIYa3kuv/zQiPzqk8y45J+8lm2yT9JIWmZhG2CyGQIZCCCzDJApAgIQSE8AmaVnTAkQgEAGAsgsA2SKgAAE0hNAZukZUwIEIJCBADKLhHz+/Hkj/1ggAIFxEUBmke2BzCKBkRwCmQggs0jQyCwSGMkhkIkAMosEjcwigZEcApkIILNI0MgsEhjJIZCJADKLBI3MIoGRHAKZCCCzSNDILBIYySGQiQAyiwSNzCKBkRwCmQggs0jQyCwSGMkhkIkAMosEjcwigZEcApkIILNI0MgsEhjJIZCJADKLBI3MIoGRHAKZCCCzSNDILBIYySGQiQAyiwSNzCKBkRwCmQggs0jQyCwSGMkhkIkAMosEjcwigZEcApkIILNI0MgsEhjJIZCJADKLBI3MIoGRHAKZCCCzTKApBgIQSEsAmaXlS+4QgEAmAsgsE2iKgQAE0hJAZj35Xr161dx+++3m5ptvtv/ktWxjgQAExkEAmfVoh4sXL5rVamUuXbpkrl27Zv/Ja9km+1ggAIH9E0BmHW0gsy+RlkgsXGSb7GOGFpJhHQL5CSCzDuZyOimzsE2L7JM0LBCAwH4JILMO/nKNrG1WpofJPknDAgEI7JcAMuvgj8w6ALEbAiMhgMw6GoLTzA5A7IbASAggs46G4AOADkDshsBICCCzHg3BrRk9IJEEAnsmgMx6NoDM0OSUk5tmewIjGQQyE0BmmYFTHAQgkIYAMkvDlVwhAIHMBJBZZuAUBwEIpCGAzCK58nDGSGAkh0AmAsgsEjQyiwRGcghkIoDMIkEjs0hgJIdAJgLILBI0MosERnIIZCKAzCJBI7NIYCSHQCYCyCwSNDKLBEZyCGQigMwiQSOzSGAkh0AmAsgsEjQyiwRGcghkIoDMIkEjs0hgJIdAJgLILBI0MosERnIIZCKAzCJBI7NIYCSHQCYCyCwSNDKLBEZyCGQigMwiQSOzSGAkh0AmAsgsEjQyiwRGcghkIoDMIkEjs0hgJIdAJgLILBI0MosERnIIZCKAzCJBI7NIYCSHQCYCyCwSNDKLBEZyCGQigMwygaYYCEAgLQFklpYvuUMAApkIILNMoCkGAhBISwCZpeV7cLkfHy3MYuH9O7c2VwavxbFZ+WXo66PjwUs6zAyvmPU5aYOlWV/epgZ6/MKsTrY5/jCPmazM7r50n/nJX73JXP+k55qve8LPj/qfxCixSsw5lisXllZY9Y5eDYC9yWyxMMsLw6szB9Nhy9C26Cmzy2uzlDcE92agxyOzYdtlD7mJFA5BYqFkJeYcQtPZly8zFVw4Gzi+kHJmtjI6F9OYqgG5h44zmiJVRj1ldrIqZtNOZqOpSNZAJjkzk1lOKIpDWZfYey36bmzfkdflaYn/ThycytmOroMkPI2s0vqC8+OoZFce6w8cHUzl6WI1u6rytbM9d4xub8qsOtYYJzibb5VW4qrvqwZ9GGdbfqsTj0PIxZ1WaxrJW+PVmWO1Hsq3HpfG3J5X7djW9txcLz02rG/xZuSXp63oxRzy1PY7OjZVflXZxmh+2m9Wmumo/k5SZoc4K1PZSuzdS9gxtZOpzNr3Ly9cctJzp5IyeN1A0sHXjKA+SIvyrCjcsVUMhUA2xSCnke37Fouq/LbyFqVomvuKgVcNxCoWqacKTY9bnitOswsGS7O016eqYwqh6wAO9zfX9bqW5u/YijRszJvyOr29/FlyW95Sr2adhUVVXhFbB2+V2bllcbpavilt5o3MmiMk0RYVw6H+7cLiOnBjplMMjsZ+FU4gAzcL0/2eTE6NQTu/lO+O9d/JTTXINEZNZ2NoGVxlbLZcTevi8Qbnx8vrQ42L45qnF4fGGdRbZzVOEGWMul7IT8tUGW5etxxPi9nJRfOqZpY1ITkGLXXxG0TrpWzDdTeTCiSv6d3+UqZ6vPIO6qJclJsfypheT3JmdqgS07i7OojKSmcckl47nAws3V+bIbhZQj1tUZYOHp0phBFUA7mWZyAB3dcdg5ZXzMRcvDrY3GCqZktF3kuzVpm5ga+x1vOs16sox2ck+7Vc5Vhf1zpXcgyPr62fFrOTWZWXX5b/uog7LFvXAx7KS2Wk605WdZlpPRt1bxwfsAzrdm5dhDmy/5HZCD/p7Ooj2vmrd0rtfBtmZkGGtUFY7tNt/qme7LIfAASdvVl+kYnbfm5tLpWfmFYx+kFovHpaqeulTN3g0f3esW5fJYZir+bhbde4g5mZzkg1Xh3k9XUVSJWfMtLja+surpaYA7lIvH5Z+rpiFdRF61HKqpE+2F9d46rLrMpf6xbMzJwMtfywLrp94TXIeF4iswOUWXVqF7xTL0IZ1PeHg9DOdnSG4wZj/Rh73WTTPun8bfs2bdf43DWzarC4AWrjqQabzvbs33KwqUSqfcGg1Ws+5d+w3rquZQ4iMyesgJ+NWetTibFWdhtDG3uZftP+kodRmbljwvIqCVXM9HqeMe54zS9onzbe41FYFQkyO0SZSft5HXh54bh5k2XLANBBXBOQysz2iZZO3xDIyhxr2bIvLMfPL9x3isyq2YReV9IB6cnBDbbqVLkYnJUkwoHn6hycikt1a0JprGv5zbw1Ty1L1/06OGnYmJt5bSpbjmtrTy3Lzpx9/rbdNH9hJfHqehX7qe3UyE/7QfFmU5VdtEVVX1v4aP5DZocqM78LaWfUC7j+Pl5DYCYEkNlBykzfOb1Zi3cLwkz6LtWEQI0AMpuIzPS6T611WYHAjAjMWmbf81MvtU39vJe9bVTfGJhR/6OqEBiMwGxl9oSfeJF56L8ecSCPbr1jNEJzQfECAhDoTWC2Mnva8hUNSP9w5yfMN9/w/L1LrREYGyAAgU4Cs5WZ3G3/66/4ywagz//bVfPDv/jKvQqtEdTEN9iP/r3bLiZeXaqXiMCsZSZC+/Hnv8ZceeA/G3h/89Xv2JvQGsGcsqG4X6m6+fSUpGl2lfeS9b/3qLgHqn/6NGGT6/QIzF5mIrTveuYLzUc+fk+jdd964c69CK0RyMYNcovGyqyOyjv/N6ZLt0NmVaujlfdgwK6ykFkXIfZvRwCZlbdmfP0Tl+Yv3vXhBsUPX7wnu9AaQWzaIDfLyumZ/vXS2Rnb0bH7ArrcWV6fDfn3qlV3itdP+QrxbL7to5Dpsf36S9vs0C9Dyq+v+4+Y8cuo33Hu5yvHL836RJ+c4T9d1as8L2dJAJkF95m97HXvbHSEB77ysPm2p78gm9QaAWzYYGdF9hnv5SD3nhevX5dxArOngyqtYHZk96k0vLxEkv7Xk8I4PIlKLL6Q9JllfvlrG2tQdvk1Iz3Wxu2XWYuhlKHbX6y7MsL4WJ8VAWQWyExOO5/zwjeaR//va42OkOsJto2C2zbUBFR8V1GFIMl1ZuYf6oRTE4RNbdbnVHTl9z6P5Om13jY/I/s6kFKYpye6+qHBcTWZeSJ1B0l6jaO539XJpefFXAkgsxaZidCe8uyXm0/f6011yh7ystf9ffIZWp/O2JCVyM3NWNplJsdY4YlogidL1E9DC+H4cmzEFMi0+JK1Sqcov/34LpnpDLEqsWsG2l5OdTyv5kEAmW2QmQjtgx/9dKMXXPrcv49AZoUQThNSQ3blDMiekm2cNZXVtftXxfWpps9tIpt/ixD1mVlt5Re5d8msEmKVXrc1Z2ZO0GXo/JkvAWTWIrNvevIvmfuvPtToFfd84UpykYlEOxeRjTcL0/S+QArZqAT0kUE66zntWlMlDD8/LaP4W6Wpbfdna/a196HD5bXpc81MZmG1utXq2iwXmdVaYNYryCyQ2fc/6/daO8Rt7/1oFpH1kdnG60RWIIXAChFVv9rk/ziGrWApGze7s3IMTy/D9RJNTTA+riB9rYxQrJW0wvpYoemsryZtZObT5nWdADLzZPZzL3pTnU659uKbbssmsj4yaw0y2Lh5VhUkZBUCEyGAzEqZ/eGb39Vo0q9ee9T82C8fZRUZMms0Axsg0IvA7GX2mKc837zzffYGqBqwT372i+Zbn/pr2UWGzGrNwAoEehOYtcxu+NmXm099/v4GrL+94669SExENpTMGpViAwQmTmC2MpPnmbUtN74+/X1kKq1Nf9viYhsEIHA6gdnKLHyemTw549m/9Ya9zshUbqc3GXshAIE2ArOVmYhj9efvtUzuPPmMedJP/+4oRCZxsUAAAvEEZi0zEYfcjvGN3/fcTpHJ15h2/aczr66/8c3IERCAwOxl1iUW2S8SG2KRU9s+5Q1RFnlAYG4EkJl30+wm0SCzuQ0L6nuIBJBZD5ktX/KWQdr2cc/4DWZmg5AkEwg0CSCzHjLbNGNLtb3ZTGyBAAS6CCAzZNbVR9gPgYMggMyQ2UF0VIKEQBcBZIbMuvoI+yFwEASQGTI7iI5KkBDoIoDMkFlXH2E/BA6CADJDZgfRUQkSAl0EkBky6+oj7IfAQRCYpMyuf1L3dy1T3SO2a74SOwsEIBBPYJIyy/VjvbuKq+14iZ0FAhCIJzBJmd196T5ziLMziVliZ4EABOIJTFJmgkGkILOcQ5CaxCixIrL4DswREFACk5WZVpC/EIDAPAggs3m0M7WEwOQJILPJNzEVhMA8CCCzebQztYTA5Akgs8gmPn/+vJF/LBCAwLgIILPI9kBmkcBIDoFMBJBZJGhkFgmM5BDIRACZRYJGZpHASA6BTASQWSRoZBYJjOQQyEQAmUWCRmaRwEgOgUwEkFkkaGQWCYzkEMhEAJlFgkZmkcBIDoFMBJBZJGhkFgmM5BDIRACZRYJGZpHASA6BTASQWSRoZBYJjOQQyEQAmUWCRmaRwEgOgUwEkFkkaGQWCYzkEMhEAJlFgkZmkcBIDoFMBJBZJGhkFgmM5BDIRACZRYJGZpHASA6BTASQWSRoZBYJjOQQyEQAmUWCRmaRwEgOgUwEkFkm0BQDAQikJYDM0vIldwhAIBMBZJYJNMVAAAJpCSCznnyvXr1qbr/9dnPzzTfbf/JatrFAAALjIIDMerTDxYsXzWq1MpcuXTLXrl2z/+S1bJN9LBCAwP4JILOONpDZl0hLJBYusk32MUMLybAOgfwEkFkHczmdlFnYpkX2SRoWCEBgvwSQWQd/uUbWNivTw2SfpGGBAAT2SwCZdfBHZh2A2A2BkRBAZh0NwWlmByB2Q2AkBJBZR0PwAUAHIHZDYCQEkFmPhuDWjB6QSAKBPRNAZj0bQGZocsrJTbM9gZEMApkJILPMwCkOAhBIQwCZpeFKrhCAQGYCyCwzcIqDAATSEEBmkVx5OGMkMJJDIBMBZBYJGplFAiM5BDIRQGaRoJFZJDCSQyATAWQWCRqZRQIjOQQyEUBmkaCRWSQwkkMgEwFkFgkamUUCIzkEMhFAZpGgkVkkMJJDIBMBZBYJGplFAiM5BDIRQGaRoJFZJDCSQyATAWQWCRqZRQIjOQQyEUBmkaCRWSQwkkMgEwFkFgkamUUCIzkEMhFAZpGgkVkkMJJDIBMBZBYJGplFAiM5BDIRQGaRoJFZJDCSQyATAWQWCRqZRQIjOQQyEUBmkaCRWSQwkkMgEwFkFgkamUUCIzkEMhFAZplAUwwEIJCWADJLy5fcIQCBTASQWSbQFAMBCKQlgMzS8k2U+7FZLRZmEfxbnWxTnOa1MsfbHM4xEBgJAWS2oSG+9oX7zf++fW3++1deah562rPMA99+g/nS9Y83V8+ctf/ktWyTfZJG0soxeRYVUF1oyCwPfUoZJwFk5rXL1770gPmfP3mTefDJzzRXr3vsVv/kWMlD8kq3qMyGmE0NmVe6GpMzBLoIIDNj7IxKZld21rWlxBryO3PWztjSzNZOEdDltVnK6ee5tblysnKnorVZm7d9eWFdnrIOIcau7sZ+CKQjMHuZPXLjTcNKLJThmbNGyhh2UZn5p5mljJzMloXU3HW1YL/brnkgs2HbiNxyE5itzB49+eROp5ONmVgosWBdTj+lzGGWHjJbLM36spSmaYv146NSXkfl5X6V3wKZDdM25LIvArOUmVysH/SUMhDXRtGdOWs/KNi9sVVQLQJSOclppi3oilmfE4HVZVaddp6S1+6BkgMEshGYnczk4vxG2fSV0o7pJIbdllME1FNmywuF6oymZ2a2W5Nw9N4JzEpmYxCZinQ3oanM9HpX8dcKSuW0YWZmvIv/9fvUWmZ5e++eBACB/gRmIzN7arnjjEpFNNRfiWm7ZQeZyVU0vW62WJjVieaFzLZrC44aC4FZyEwuvO/lGlmXPM+cHfBDgbF0KeKAwH4IzEJmu9wEO9QsbFM+EhsLBCCwO4HJy8zeR9Y1Q9rz/uHvQ9u9Y5ADBA6NwKRlJnff9zm9/PJjnmhS/ts0K3Pbz5zN+L3OQ+uixAuBfgQmLTP7FaUesy4RWapF8nbSOiUWiZUFAhDYnsBkZSZf9O4zKxPRjEFmEmvaL6dv30k4EgKHQGCyMou5p2wUMrvusfZpG4fQaYgRAmMkMFmZxXyCORaZ8cnmGIcIMR0KgUnKzF74P+X6VHgNaywyk7jSPDLoULojcUJgewKTlFns3f5jktn23wrYvhNwJASmQGCSMuv7KabO0MYkMz7VnMKwog77IDBJmclz+VVUff6OSWYSOwsEIBBPYJIykx8a6SMxTTMmmUnsLBCAQDyBScrM/orSgX4AILGzQAAC8QQmKbO+N8uOcWYmsbNAAALxBJDZWL4BoDNJZBbfizkCAsaYScqM00z6NgTmR2CSMuMDgPl1ZGoMgUnKjFsz6NgQmB+BScqMm2bn15GpMQQmKTO+zkTHhsD8CExSZnzRfH4dmRpDYJIyk2blEUB0bgjMi8BkZcbDGefVkaktBCYrMx6bTeeGwLwITFZm0ox9P9UcwxfNefTPvAYetR2ewKRlxk/NDd9hyBECYyUwaZkJdH4EeKxdj7ggMCyByctMcMV8sqlP0sj1lx8xGbZDk9t8CcxCZo+efLL3b2jmkpgt58xZI7GxQAACuxOYhcwEU+y3AnJIjR8v2b0DkwMElMBsZCYVjrn3LLXMJBYWCEBgOAKzkplgG4PQENlwHZicIKAEZiczqbg95TxzNupHTwaZqZ05a8tW+PyFAASGIzBLmZRyBm0AAAJ0SURBVAk+ufCe81NOKYuL/cN1XHKCQEhgtjJTEPY+tJSztDNn7b1uWh5/IQCBNARmLzPBKt8UsF99GlJqZ87aPCVvFghAID0BZOYxli+ny8X5XU4/5VjJQ/JigQAE8hFAZhtYy4xKPiiQGZv8poD8SIr91SeZvZ05a1/LNtknaSQts7ANMNkMgQwEkFkGyBQBAQikJ4DM0jOmBAhAIAMBZJYBMkVAAALpCSCz9IwpAQIQyEAAmWWATBEQgEB6AsgsPWNKgAAEMhBAZhkgUwQEIJCeADJLz5gSIACBDASQWQbIFAEBCKQngMzSM6YECEAgAwFklgEyRUAAAukJILP0jCkBAhDIQACZZYBMERCAQHoCyCw9Y0qAAAQyEEBmGSBTBAQgkJ4AMkvPmBIgAIEMBJBZBsgUAQEIpCeAzNIzpgQIQCADAWSWATJFQAAC6Qkgs/SMKQECEMhAAJllgEwREIBAegLILD1jSoAABDIQQGYZIFMEBCCQngAyS8+YEiAAgQwEkFkGyBQBAQikJ4DM0jOmBAhAIAMBZJYBMkVAAALpCSCz9IwpAQIQyEAAmWWATBEQgEB6AsgsPWNKgAAEMhBAZhkgUwQEIJCeADJLz5gSIACBDASQWQbIFAEBCKQngMzSM6YECEAgAwFklgEyRUAAAukJILP0jCkBAhDIQACZZYBMERCAQHoCyCw9Y0qAAAQyEEBmGSBTBAQgkJ4AMkvPmBIgAIEMBJBZBsgUAQEIpCeAzNIzpgQIQCADAWSWATJFQAAC6Qkgs/SMKQECEMhAAJllgEwREIBAegLILD1jSoAABDIQQGYZIFMEBCCQnsD/A0Z4x4yu09vfAAAAAElFTkSuQmCC;" vertex="1" parent="FMLH_2FoLISFBr_eS4cL-65">
          <mxGeometry x="15" y="63" width="198.27" height="217" as="geometry" />
        </mxCell>
        <mxCell id="4" value="Recommendation" style="swimlane;whiteSpace=wrap" parent="1" vertex="1">
          <mxGeometry x="724.5" y="128" width="280" height="570" as="geometry" />
        </mxCell>
        <mxCell id="FMLH_2FoLISFBr_eS4cL-41" value="&lt;b&gt;Recommendation&lt;/b&gt;" style="swimlane;fontStyle=0;childLayout=stackLayout;horizontal=1;startSize=30;horizontalStack=0;resizeParent=1;resizeParentMax=0;resizeLast=0;collapsible=1;marginBottom=0;whiteSpace=wrap;html=1;rounded=0;" vertex="1" parent="4">
          <mxGeometry x="55.5" y="52" width="144.5" height="180" as="geometry">
            <mxRectangle x="35.5" y="42" width="130" height="30" as="alternateBounds" />
          </mxGeometry>
        </mxCell>
        <mxCell id="FMLH_2FoLISFBr_eS4cL-42" value="&lt;span style=&quot;color: rgb(24, 24, 24); font-family: -apple-system, BlinkMacSystemFont, &amp;quot;Segoe UI&amp;quot;, Roboto, Helvetica, Arial, sans-serif, &amp;quot;Apple Color Emoji&amp;quot;, &amp;quot;Segoe UI Emoji&amp;quot;, &amp;quot;Segoe UI Symbol&amp;quot;; font-size: 13px; white-space-collapse: preserve-breaks; background-color: rgb(255, 255, 255);&quot;&gt;&lt;b&gt;Static_Key__c&lt;/b&gt;&lt;/span&gt;" style="text;strokeColor=none;fillColor=none;align=left;verticalAlign=middle;spacingLeft=4;spacingRight=4;overflow=hidden;points=[[0,0.5],[1,0.5]];portConstraint=eastwest;rotatable=0;whiteSpace=wrap;html=1;" vertex="1" parent="FMLH_2FoLISFBr_eS4cL-41">
          <mxGeometry y="30" width="144.5" height="30" as="geometry" />
        </mxCell>
        <mxCell id="FMLH_2FoLISFBr_eS4cL-43" value="&lt;span style=&quot;color: rgb(24, 24, 24); font-family: -apple-system, BlinkMacSystemFont, &amp;quot;Segoe UI&amp;quot;, Roboto, Helvetica, Arial, sans-serif, &amp;quot;Apple Color Emoji&amp;quot;, &amp;quot;Segoe UI Emoji&amp;quot;, &amp;quot;Segoe UI Symbol&amp;quot;; font-size: 13px; white-space-collapse: preserve-breaks; background-color: rgb(255, 255, 255);&quot;&gt;IsActive__c&lt;/span&gt;" style="text;strokeColor=none;fillColor=none;align=left;verticalAlign=middle;spacingLeft=4;spacingRight=4;overflow=hidden;points=[[0,0.5],[1,0.5]];portConstraint=eastwest;rotatable=0;whiteSpace=wrap;html=1;" vertex="1" parent="FMLH_2FoLISFBr_eS4cL-41">
          <mxGeometry y="60" width="144.5" height="30" as="geometry" />
        </mxCell>
        <mxCell id="FMLH_2FoLISFBr_eS4cL-44" value="&lt;span style=&quot;color: rgb(24, 24, 24); font-family: -apple-system, BlinkMacSystemFont, &amp;quot;Segoe UI&amp;quot;, Roboto, Helvetica, Arial, sans-serif, &amp;quot;Apple Color Emoji&amp;quot;, &amp;quot;Segoe UI Emoji&amp;quot;, &amp;quot;Segoe UI Symbol&amp;quot;; font-size: 13px; white-space-collapse: preserve-breaks; background-color: rgb(255, 255, 255);&quot;&gt;Priority__c&lt;/span&gt;" style="text;strokeColor=none;fillColor=none;align=left;verticalAlign=middle;spacingLeft=4;spacingRight=4;overflow=hidden;points=[[0,0.5],[1,0.5]];portConstraint=eastwest;rotatable=0;whiteSpace=wrap;html=1;" vertex="1" parent="FMLH_2FoLISFBr_eS4cL-41">
          <mxGeometry y="90" width="144.5" height="30" as="geometry" />
        </mxCell>
        <mxCell id="FMLH_2FoLISFBr_eS4cL-56" value="&lt;span style=&quot;color: rgb(24, 24, 24); font-family: -apple-system, BlinkMacSystemFont, &amp;quot;Segoe UI&amp;quot;, Roboto, Helvetica, Arial, sans-serif, &amp;quot;Apple Color Emoji&amp;quot;, &amp;quot;Segoe UI Emoji&amp;quot;, &amp;quot;Segoe UI Symbol&amp;quot;; font-size: 13px; white-space-collapse: preserve-breaks; background-color: rgb(255, 255, 255);&quot;&gt;Repetition_Interval__c&lt;/span&gt;" style="text;strokeColor=none;fillColor=none;align=left;verticalAlign=middle;spacingLeft=4;spacingRight=4;overflow=hidden;points=[[0,0.5],[1,0.5]];portConstraint=eastwest;rotatable=0;whiteSpace=wrap;html=1;" vertex="1" parent="FMLH_2FoLISFBr_eS4cL-41">
          <mxGeometry y="120" width="144.5" height="30" as="geometry" />
        </mxCell>
        <mxCell id="FMLH_2FoLISFBr_eS4cL-57" value="&lt;span style=&quot;color: rgb(24, 24, 24); font-family: -apple-system, BlinkMacSystemFont, &amp;quot;Segoe UI&amp;quot;, Roboto, Helvetica, Arial, sans-serif, &amp;quot;Apple Color Emoji&amp;quot;, &amp;quot;Segoe UI Emoji&amp;quot;, &amp;quot;Segoe UI Symbol&amp;quot;; font-size: 13px; white-space-collapse: preserve-breaks; background-color: rgb(255, 255, 255);&quot;&gt;Repetition_Interval__c&lt;/span&gt;" style="text;strokeColor=none;fillColor=none;align=left;verticalAlign=middle;spacingLeft=4;spacingRight=4;overflow=hidden;points=[[0,0.5],[1,0.5]];portConstraint=eastwest;rotatable=0;whiteSpace=wrap;html=1;" vertex="1" parent="FMLH_2FoLISFBr_eS4cL-41">
          <mxGeometry y="150" width="144.5" height="30" as="geometry" />
        </mxCell>
        <mxCell id="FMLH_2FoLISFBr_eS4cL-64" style="edgeStyle=orthogonalEdgeStyle;rounded=0;orthogonalLoop=1;jettySize=auto;html=1;" edge="1" parent="1" source="FMLH_2FoLISFBr_eS4cL-59" target="FMLH_2FoLISFBr_eS4cL-42">
          <mxGeometry relative="1" as="geometry" />
        </mxCell>
      </root>
    </mxGraphModel>
  </diagram>
</mxfile>
